<svg version="1.1" xmlns="http://www.w3.org/2000/svg" viewBox="-2994.953266045384 -3101.1812835027667 7619.71924248047 6128.358031075619"><desc>Created with Snap</desc><defs></defs><g><g transform="matrix(17.8366,0,0,17.8366,-2817.0833,-3417.789)">
<g id="gSkh3kaheova">
	<path d="M196.02133,47.02528C162.0565,63.37874,34.04472,181.23653,17.95026,220.8622
		C-23.53873,323.01114,64.3831,338.37173,131.90678,342.95166c83.79094,5.68329,233.84074-6.40137,262.61847-108.008
		C427.85785,117.2548,302.42114-4.2047,196.02133,47.02528z" fill="#4a274f" style=""></path>
</g>


<desc>Created with Snap</desc><defs></defs></g><g><g transform="matrix(0.5,0,0,-0.5,0,0)"><path d="M1346 705L1346 616L1202 616L1202 29Q1202 -107 1156 -209Q1110 -310 1027 -378Q945 -445 832 -479Q719 -512 586 -512Q535 -512 488 -504Q441 -495 405 -480Q369 -465 347 -445Q326 -424 326 -399Q326 -381 331 -363Q336 -344 346 -329Q356 -314 370 -305Q385 -295 403 -295Q415 -295 423 -306Q431 -317 440 -333Q449 -349 461 -369Q473 -388 491 -404Q509 -420 535 -431Q561 -442 600 -442Q677 -442 736 -414Q795 -386 834 -336Q874 -285 894 -215Q915 -144 915 -59L915 2Q873 -7 830 -12Q788 -16 735 -16Q599 -16 480 25Q361 67 272 154Q184 241 133 376Q82 511 82 698Q82 828 110 938Q138 1048 188 1136Q238 1225 306 1292Q375 1359 455 1404Q536 1449 625 1472Q715 1495 807 1495Q894 1495 969 1478Q1044 1462 1099 1430Q1155 1399 1187 1352Q1219 1306 1219 1247Q1219 1220 1209 1190Q1200 1161 1182 1136Q1164 1112 1136 1096Q1109 1081 1073 1081Q1030 1081 1009 1105Q989 1130 978 1166Q968 1202 963 1245Q958 1288 946 1324Q934 1360 909 1384Q885 1409 838 1409Q803 1409 759 1392Q715 1375 670 1338Q625 1302 581 1245Q538 1189 504 1110Q471 1031 450 928Q430 826 430 698Q430 556 448 455Q466 355 495 287Q525 220 563 180Q602 141 643 121Q684 101 724 95Q765 90 799 90Q834 90 863 95Q892 101 915 111L915 616L739 616L739 705L1346 705ZM2144 692L1749 459Q1749 427 1758 389Q1768 352 1786 314Q1804 276 1830 241Q1857 207 1891 180Q1926 153 1968 137Q2010 121 2060 121Q2095 121 2125 129Q2155 137 2181 151Q2207 165 2231 183Q2255 202 2279 223L2304 199Q2281 168 2245 131Q2209 94 2158 61Q2107 29 2039 7Q1971 -14 1884 -14Q1797 -14 1714 17Q1632 49 1568 112Q1504 175 1465 269Q1427 363 1427 489Q1427 580 1450 656Q1473 732 1512 793Q1552 854 1604 900Q1657 946 1715 976Q1773 1007 1833 1022Q1894 1038 1950 1038Q2024 1038 2079 1022Q2134 1006 2170 979Q2207 952 2225 916Q2243 881 2243 842Q2243 795 2216 757Q2189 720 2144 692ZM1739 541L1950 662Q1963 670 1971 677Q1980 685 1985 695Q1990 706 1992 721Q1995 737 1995 760Q1995 785 1989 815Q1984 846 1971 873Q1958 900 1938 918Q1918 936 1890 936Q1854 936 1828 914Q1803 893 1786 859Q1770 825 1760 781Q1751 738 1746 694Q1741 650 1740 609Q1739 569 1739 541ZM3092 692L2697 459Q2697 427 2706 389Q2716 352 2734 314Q2752 276 2778 241Q2805 207 2839 180Q2874 153 2916 137Q2958 121 3008 121Q3043 121 3073 129Q3103 137 3129 151Q3155 165 3179 183Q3203 202 3227 223L3252 199Q3229 168 3193 131Q3157 94 3106 61Q3055 29 2987 7Q2919 -14 2832 -14Q2745 -14 2662 17Q2580 49 2516 112Q2452 175 2413 269Q2375 363 2375 489Q2375 580 2398 656Q2421 732 2460 793Q2500 854 2552 900Q2605 946 2663 976Q2721 1007 2781 1022Q2842 1038 2898 1038Q2972 1038 3027 1022Q3082 1006 3118 979Q3155 952 3173 916Q3191 881 3191 842Q3191 795 3164 757Q3137 720 3092 692ZM2687 541L2898 662Q2911 670 2919 677Q2928 685 2933 695Q2938 706 2940 721Q2943 737 2943 760Q2943 785 2937 815Q2932 846 2919 873Q2906 900 2886 918Q2866 936 2838 936Q2802 936 2776 914Q2751 893 2734 859Q2718 825 2708 781Q2699 738 2694 694Q2689 650 2688 609Q2687 569 2687 541ZM3584 1427L3547 1028Q3545 1011 3537 1001Q3530 992 3519 987Q3508 983 3496 982Q3484 981 3475 981Q3466 981 3454 982Q3442 983 3431 987Q3420 992 3412 1001Q3404 1011 3403 1028L3366 1427Q3364 1444 3372 1457Q3380 1470 3395 1478Q3410 1487 3430 1491Q3451 1495 3475 1495Q3499 1495 3519 1491Q3540 1487 3555 1478Q3570 1470 3577 1457Q3585 1444 3584 1427ZM4134 958Q4111 958 4090 952Q4070 946 4054 932Q4038 919 4029 898Q4020 878 4020 850Q4020 811 4048 772Q4077 734 4119 692Q4162 651 4211 606Q4261 562 4303 512Q4346 463 4374 407Q4403 351 4403 287Q4403 215 4378 159Q4354 103 4308 64Q4263 25 4198 4Q4134 -16 4055 -16Q3986 -16 3930 3Q3874 23 3830 51Q3787 80 3756 112Q3725 144 3708 170L3743 195Q3756 180 3776 162Q3796 145 3820 130Q3845 115 3873 105Q3901 96 3930 96Q4002 96 4048 130Q4094 165 4094 233Q4094 271 4069 311Q4044 352 4006 395Q3968 438 3924 484Q3880 530 3842 579Q3804 628 3779 680Q3754 732 3754 788Q3754 851 3779 898Q3805 945 3847 976Q3890 1007 3944 1022Q3999 1038 4057 1038Q4124 1038 4179 1026Q4234 1014 4273 989Q4313 965 4334 928Q4356 891 4356 842Q4356 804 4331 776Q4306 748 4261 748Q4218 748 4195 766Q4173 785 4173 817Q4173 838 4183 850Q4194 862 4207 869Q4220 877 4230 882Q4241 888 4241 897Q4241 925 4211 941Q4181 958 4134 958Z" fill="#efa07b" style=""></path></g></g><g transform="matrix(1,0,0,1,57.75,1341.2)"><g transform="matrix(0.5,0,0,-0.5,0,0)"><path d="M842 1311L842 178Q842 155 846 134Q851 114 864 99Q878 84 901 75Q925 66 963 66Q1018 66 1064 97Q1110 129 1143 178Q1176 228 1194 289Q1212 351 1212 412Q1212 503 1187 572Q1163 642 1119 690Q1075 738 1015 764Q955 791 885 795L905 846Q949 844 989 858Q1029 872 1059 907Q1090 942 1108 1001Q1126 1061 1126 1151Q1126 1212 1111 1261Q1096 1310 1071 1343Q1047 1377 1014 1395Q982 1413 948 1413Q927 1413 907 1408Q888 1403 873 1391Q859 1379 850 1359Q842 1340 842 1311ZM862 1495Q1152 1495 1288 1404Q1425 1314 1425 1141Q1425 1098 1415 1062Q1406 1026 1391 996Q1376 967 1357 944Q1338 921 1318 904Q1271 863 1212 840L1212 825Q1305 814 1379 769Q1410 750 1440 721Q1470 693 1493 652Q1517 612 1531 558Q1546 505 1546 436Q1546 331 1508 247Q1470 163 1395 104Q1320 46 1208 15Q1096 -16 948 -16Q811 -16 725 1Q639 18 591 50Q543 83 525 129Q508 175 508 233L508 1327Q508 1382 432 1382Q377 1382 320 1365Q264 1349 218 1320Q173 1292 144 1252Q115 1213 115 1167Q115 1135 123 1116Q132 1097 143 1087Q154 1078 165 1075Q177 1073 182 1073Q207 1073 223 1081Q239 1090 252 1099Q265 1109 276 1117Q288 1126 303 1126Q315 1126 328 1120Q342 1115 353 1103Q365 1091 373 1071Q381 1052 381 1024Q381 984 365 955Q350 926 325 906Q301 887 269 877Q238 868 207 868Q159 868 120 884Q82 901 55 930Q28 959 14 998Q0 1037 0 1081Q0 1164 31 1227Q62 1291 118 1337Q175 1383 254 1413Q333 1444 429 1462Q525 1480 634 1487Q744 1495 862 1495ZM2042 1391L2042 88Q2042 75 2037 57Q2033 39 2016 23Q2000 7 1968 -5Q1937 -16 1884 -16Q1831 -16 1801 -4Q1771 9 1756 26Q1742 43 1738 61Q1735 79 1735 90L1735 1380Q1735 1409 1721 1430Q1708 1452 1676 1452Q1659 1452 1646 1446Q1634 1441 1620 1430L1600 1454Q1623 1473 1651 1491Q1679 1510 1712 1524Q1746 1538 1784 1547Q1822 1556 1864 1556Q1929 1556 1965 1538Q2001 1521 2018 1495Q2035 1470 2038 1441Q2042 1413 2042 1391ZM2230 512Q2230 643 2268 741Q2306 840 2369 906Q2433 972 2517 1005Q2601 1038 2693 1038Q2785 1038 2869 1007Q2953 977 3016 914Q3080 851 3118 754Q3156 658 3156 526Q3156 395 3118 294Q3080 193 3016 124Q2953 55 2869 19Q2785 -16 2693 -16Q2601 -16 2517 17Q2433 51 2369 117Q2306 183 2268 282Q2230 381 2230 512ZM2845 522Q2845 602 2839 676Q2834 751 2818 809Q2802 867 2772 901Q2742 936 2693 936Q2644 936 2614 899Q2584 863 2568 803Q2552 744 2547 668Q2542 592 2542 512Q2542 432 2547 355Q2552 279 2568 219Q2584 159 2614 122Q2644 86 2693 86Q2742 86 2772 124Q2802 162 2818 224Q2834 286 2839 364Q2845 442 2845 522ZM3300 629Q3300 731 3335 807Q3371 884 3431 935Q3491 987 3570 1012Q3649 1038 3736 1038Q3823 1038 3901 1015Q3979 992 4039 944Q4058 973 4070 1005Q4082 1037 4082 1069Q4082 1111 4059 1136Q4037 1161 4002 1161L4002 1190Q4024 1197 4041 1202Q4058 1208 4072 1211Q4086 1214 4100 1215Q4114 1217 4131 1217Q4178 1217 4203 1188Q4228 1159 4228 1108Q4228 1078 4214 1048Q4200 1019 4179 992Q4158 965 4132 941Q4107 917 4084 899Q4126 851 4149 787Q4172 723 4172 641Q4172 538 4136 459Q4101 380 4041 326Q3981 272 3902 244Q3823 217 3736 217Q3685 217 3636 226Q3587 235 3544 252Q3528 240 3516 222Q3505 204 3505 182Q3505 145 3537 127Q3569 109 3622 101Q3675 93 3742 91Q3809 89 3879 84Q3950 80 4017 67Q4084 55 4137 26Q4190 -2 4222 -51Q4254 -100 4254 -178Q4254 -235 4230 -281Q4206 -326 4165 -361Q4125 -395 4071 -420Q4018 -444 3958 -460Q3899 -475 3837 -482Q3776 -489 3720 -489Q3618 -489 3536 -479Q3455 -468 3398 -446Q3341 -424 3310 -389Q3279 -354 3279 -305Q3279 -270 3295 -241Q3311 -211 3337 -187Q3364 -162 3397 -143Q3430 -123 3464 -106Q3414 -85 3380 -43Q3347 0 3347 70Q3347 107 3360 138Q3373 170 3393 196Q3414 223 3438 244Q3463 266 3486 281Q3445 305 3410 339Q3376 374 3351 417Q3327 461 3313 514Q3300 567 3300 629ZM3871 637Q3871 695 3865 750Q3859 805 3844 848Q3829 891 3803 917Q3777 944 3736 944Q3695 944 3669 916Q3643 889 3628 844Q3613 800 3607 743Q3601 687 3601 629Q3601 570 3607 513Q3613 456 3628 411Q3643 366 3669 338Q3695 311 3736 311Q3777 311 3803 340Q3829 369 3844 415Q3859 462 3865 520Q3871 578 3871 637ZM4023 -258Q4023 -226 3998 -206Q3973 -185 3932 -173Q3892 -160 3840 -154Q3789 -147 3736 -144Q3683 -140 3633 -137Q3583 -134 3546 -129Q3525 -144 3505 -162Q3486 -179 3471 -199Q3457 -218 3448 -240Q3439 -261 3439 -283Q3439 -321 3461 -347Q3483 -372 3520 -387Q3558 -402 3607 -408Q3657 -414 3712 -414Q3785 -414 3843 -402Q3901 -389 3941 -368Q3981 -346 4002 -318Q4023 -290 4023 -258Z" fill="#efa07b" style=""></path></g></g></g></svg>